<?xml version="1.0" encoding="UTF-8" standalone="no"?>
<!-- Created with Inkscape (http://www.inkscape.org/) -->

<svg
   version="1.1"
   id="svg1"
   width="480"
   height="480"
   viewBox="0 0 480 480"
   sodipodi:docname="Logo_cmyk_Leo_2C.eps"
   xmlns:inkscape="http://www.inkscape.org/namespaces/inkscape"
   xmlns:sodipodi="http://sodipodi.sourceforge.net/DTD/sodipodi-0.dtd"
   xmlns="http://www.w3.org/2000/svg"
   xmlns:svg="http://www.w3.org/2000/svg">
  <defs
     id="defs1" />
  <sodipodi:namedview
     id="namedview1"
     pagecolor="#ffffff"
     bordercolor="#000000"
     borderopacity="0.25"
     inkscape:showpageshadow="2"
     inkscape:pageopacity="0.0"
     inkscape:pagecheckerboard="0"
     inkscape:deskcolor="#d1d1d1">
    <inkscape:page
       x="0"
       y="0"
       inkscape:label="1"
       id="page1"
       width="480"
       height="480"
       margin="0"
       bleed="0" />
  </sodipodi:namedview>
  <g
     id="g1"
     inkscape:groupmode="layer"
     inkscape:label="1">
    <g
       id="group-R5">
      <path
         id="path2"
         d="m 3046.94,1759.3 c -14.1,42.57 -29.37,77.91 -48.04,111.24 -47.14,84.06 -97.75,165.54 -150.39,242.19 -4.45,6.47 -9.67,13.2 -14.94,19.94 -6.21,7.94 -12.62,16.15 -15.9,22.11 -4.96,8.99 -7.02,30.63 -7.7,37.72 -0.6,6.59 -0.65,14.26 -0.71,22.38 -0.09,13.79 -0.2,29.41 -3.22,44.96 -5.48,28.14 -22.26,47.59 -35.75,63.21 -3.49,4.04 -6.99,8.05 -10.13,12.2 -22.88,30.2 -45.05,63.29 -64.2,92.63 -0.25,9.7 0.81,27.58 1.31,36.06 0.57,9.56 0.97,17.65 0.9,22.02 -0.88,49.38 -22.58,91.65 -42.59,114.74 l -2.64,3.07 c -19.32,22.59 -77.62,90.78 -144.07,117.62 -77.41,42.04 -205.94,100.57 -431.25,129.91 -83.25,18.01 -167.37,27.14 -250.03,27.14 -6.7,0 -13.43,-0.06 -18.95,-0.18 -4.96,0.07 -9.89,0.1 -14.81,0.1 -52.91,0 -107.17,-3.83 -161.25,-11.4 -259.04,-26.79 -393.95,-93.79 -473.44,-133.29 -45.47,-20.83 -143.88,-91.52 -164.445,-127.19 l -4.929,-8.44 c -14.473,-24.51 -32.469,-55.02 -33.25,-99.14 -0.161,-8.07 0.808,-15.29 1.648,-21.66 0.137,-0.91 0.266,-1.87 0.383,-2.84 -3.156,-2.41 -6.106,-4.78 -8.496,-6.98 -48.254,-44.54 -103.059,-124.23 -96.496,-253.62 -24.129,-30.21 -51.348,-60.7 -79.969,-92.77 -62.727,-70.27 -127.578,-142.92 -171.098,-225.33 l -4.07,-7.71 c -19.387,-36.62 -45.945,-86.75 -56.113,-129.77 l -1.075,-4.53 v -33.03 l 0.254,-2.27 c 8.067,-69.96 59.817,-104.71 101.407,-132.63 13.132,-8.81 25.515,-17.13 36.23,-26.05 11.719,-9.76 25.039,-19.23 39.16,-29.25 27.774,-19.71 59.239,-42.06 71.199,-63 1.782,-3.1 3.684,-7.12 5.723,-11.29 8.43,-17.25 16.379,-33.54 30.832,-43.12 16.699,-10.96 36.153,-12.44 52.969,-12.44 3.113,0 18.918,0.19 19.734,0.17 3.899,-3.84 9.485,-9.11 17.27,-14.05 16.504,-10.54 35.23,-17.18 40.418,-18.91 0.351,-0.12 32.922,-10.62 61.044,-12.88 -8.23,-20.36 -16.83,-48.47 -19.157,-80.86 -23.45,-11.59 -37.754,-38.05 -42.637,-79.05 -4.531,-37.55 -11.145,-131.07 25.176,-188.22 18.132,-28.509 48.628,-54.54 85.918,-73.33 6.89,-3.46 14.88,-5.601 32.29,-10.089 23.5,-6.071 62.82,-16.219 83.23,-28.993 C 1331.77,800.949 1505.15,745 1698.13,727.84 v -2.07 l 37.9,-1.891 c 23.58,-1.18 47.61,-1.777 71.46,-1.777 266.04,0 481.63,71.199 585.41,132.168 20.46,12.011 42.71,23.902 64.22,35.39 44.33,23.692 68.06,36.641 80.95,49.531 15.83,15.821 30.56,35.508 43.56,52.879 4.82,6.45 9.44,12.63 13.8,18.17 3.53,4.46 9.57,9.89 15.99,15.63 22.49,20.16 56.49,50.61 51.22,104.79 -2.14,22.08 -10.84,40.72 -18.44,56 15.59,47.38 2.93,108.21 -7.48,137.12 -0.47,1.3 -0.93,2.8 -1.44,4.38 -1.75,5.53 -4.63,14.55 -9.63,23.57 37.1,6.99 66.69,17.2 91.18,31.48 4.69,-0.47 9.32,-0.71 13.84,-0.71 h 0.01 c 55.52,0 86.29,33.55 108.76,58.03 5.49,5.98 10.68,11.64 15.61,16.16 20.91,19.18 43.49,37.87 63.43,54.36 6.6,5.48 13.01,10.78 19.06,15.84 5.92,4.95 11.97,9.91 18.05,14.9 23.49,19.27 47.77,39.19 68.19,60.95 36.85,39.27 44.64,91.95 23.16,156.56"
         style="fill:#ffffff;fill-opacity:1;fill-rule:nonzero;stroke:none"
         transform="matrix(0.13333333,0,0,-0.13333333,0,480)" />
      <path
         id="path3"
         d="m 3009.07,1746.75 c -12.04,36.33 -25.95,70.35 -44.97,104.28 -46.99,83.79 -96.33,163.19 -148.49,239.13 -10.12,14.76 -24.91,30.89 -32.88,45.34 -7.84,14.2 -10.69,34.44 -12.47,53.26 -1.91,20.41 0.53,43.36 -3.38,63.46 -4.65,23.94 -24.51,40.43 -38.52,58.94 -24.51,32.37 -48.46,68.19 -70.8,102.59 -3.87,13.38 0.94,59.37 0.72,71.49 -0.68,38.34 -17.96,72.14 -32.85,89.34 -12.8,14.78 -71.66,86.71 -133.51,110.62 -75.9,41.43 -201.82,98.41 -421.09,126.76 -78.3,17.05 -166.79,28.12 -262.71,26.41 -60.13,0.8 -117.18,-3.49 -170.72,-11.01 -249.32,-25.7 -379.36,-89.1 -461.66,-129.96 -44.83,-20.54 -132.4,-86.43 -146.47,-110.83 -14.95,-25.94 -32.192,-50.47 -32.883,-88.41 -0.215,-12.13 4.133,-25.41 2.273,-38.52 -1.07,-7.7 -14.695,-15.22 -21.543,-21.54 -56.812,-52.44 -92.019,-130.37 -82.715,-236.87 -78.472,-101.65 -193.523,-204.67 -256.621,-324.15 -19.136,-36.24 -46.988,-87.16 -56.66,-128.05 v -26.07 c 8.012,-69.59 75.734,-92.78 123.547,-132.61 35.305,-29.43 96.199,-62.36 119.465,-103.13 6.941,-12.16 16.219,-35.8 23.789,-40.82 15.398,-10.1 45.957,-3.36 63.484,-6.79 10.379,-2.04 13.992,-11.59 26.074,-19.26 9.54,-6.1 22.422,-11.63 31.719,-14.74 8.899,-3 70.981,-20.57 74.801,-4.56 2.27,9.52 -6.3,9.33 -13.6,14.77 -22.4,16.69 -30.37,48.65 -43.037,70.26 28.967,19.04 74.477,37.33 113.287,49.86 13.82,4.47 30.9,13 41.95,12.47 15.85,-0.77 34.92,-20.57 43.07,-29.48 -18.17,-44.05 -25.02,-115.59 -13.6,-172.25 -3.07,-6.51 -10.32,-10.59 -15.87,-15.87 -5.99,-5.68 -11.71,-11.77 -16.99,-18.13 -11.08,-13.32 -16.53,-29.93 -28.32,-41.93 -8.56,12.26 -13.39,27.28 -19.29,45.32 -3.53,10.87 -7.66,46.05 -18.14,47.61 -9.38,1.39 -14.76,-13.44 -18.12,-21.54 -12.14,-29.2 -20.37,-65.06 -16.98,-102 -34.29,6.18 -39.969,-23.85 -43.087,-49.89 -7.109,-58.99 -3.945,-125.56 19.257,-162.04 15.32,-24.11 41.96,-44.878 70.19,-59.101 10.91,-5.488 81.73,-17.73 118.72,-40.89 C 1372,822.852 1559.79,775.922 1738.02,764.832 v -1.113 c 268.89,-13.469 513.81,53.929 634.68,124.941 54.29,31.899 121.93,63.512 137.17,78.738 19.39,19.383 38.39,47.422 54.24,67.552 20.35,25.81 63.41,44.66 58.82,91.86 -2.1,21.54 -14.13,40.14 -22.68,58.93 18.96,31.15 10.83,91.49 -1.11,124.67 -3.78,10.57 -8.21,31.2 -19.28,30.61 -10.87,-0.6 -17.98,-40.58 -21.53,-51.02 -7.22,-21.25 -13.08,-35.58 -21.5,-52.13 -66.81,48.55 -106.86,129.55 -102.02,245.96 24.69,11.09 61.24,18.12 99.75,18.12 36.96,0 76.9,-1.58 96.32,-21.53 -11.28,-26.72 -25.29,-50.22 -46.48,-69.14 -6.43,-5.77 -20.5,-11.69 -17.03,-20.39 4.08,-9.93 25.73,-4.12 37.45,-2.28 42.16,6.67 76.84,17.64 103.13,36.28 66.06,-13.77 89.13,32.75 120.13,61.19 28.53,26.19 58.91,50.51 83.87,71.42 28.07,23.46 59.03,47.27 82.74,72.54 28.49,30.37 29.78,70.38 14.38,116.71"
         style="fill:#ffffff;fill-opacity:1;fill-rule:nonzero;stroke:none"
         transform="matrix(0.13333333,0,0,-0.13333333,0,480)" />
      <path
         id="path4"
         d="m 1115.57,1742.65 c -47.48,-28.68 -101.84,-48.86 -151.898,-78.21 -35.774,-20.96 -69.578,-42.91 -100.879,-71.38 -1.133,-1.08 -29.199,-28.38 -35.098,-7.94 -3.117,10.71 14.153,24.63 22.649,31.72 48.844,40.71 107.527,75.42 171.136,100.88 29.1,11.63 60.78,25.1 94.09,24.93"
         style="fill:#4d4e55;fill-opacity:1;fill-rule:evenodd;stroke:none"
         transform="matrix(0.13333333,0,0,-0.13333333,0,480)" />
      <path
         id="path5"
         d="m 1117.81,1705.24 c -7.94,-10.12 -20.82,-14.91 -31.73,-20.4 -68.37,-34.37 -139.002,-68.73 -191.517,-121.26 -8.118,-8.1 -19.629,-20.74 -34.016,-13.58 -5.313,13.58 7.844,23.6 15.871,30.59 45.469,39.67 95.777,71.49 156.402,98.6 27.37,12.23 53.54,23.3 84.99,26.05"
         style="fill:#4d4e55;fill-opacity:1;fill-rule:evenodd;stroke:none"
         transform="matrix(0.13333333,0,0,-0.13333333,0,480)" />
      <path
         id="path6"
         d="m 1105.36,1657.66 c 9.78,-0.82 0.26,-5.65 -5.67,-9.09 -36.62,-21.15 -73.88,-36.59 -108.811,-57.8 -28.965,-17.57 -56.25,-37.49 -81.582,-62.33 -3.738,-3.62 -22.774,-21.58 -29.473,-9.05 -7.258,13.52 33.223,40.92 41.922,47.57 35.234,27 70.188,48.63 113.344,68 20.33,9.15 44.49,21.11 68.01,22.7 h 2.26"
         style="fill:#4d4e55;fill-opacity:1;fill-rule:evenodd;stroke:none"
         transform="matrix(0.13333333,0,0,-0.13333333,0,480)" />
      <path
         id="path7"
         d="m 806.699,1814.9 c -16.164,-12.59 -71.386,-24.26 -101.328,-19.26 -1.094,5.09 2.305,10.33 4.539,14.74 38.32,76.29 115.844,155.34 165.918,220.99 v 1.13 c 0.902,-9.52 -14.851,-35.15 -20.398,-48.73 -21.016,-51.59 -42.403,-108.26 -48.731,-168.87"
         style="fill:#4d4e55;fill-opacity:1;fill-rule:evenodd;stroke:none"
         transform="matrix(0.13333333,0,0,-0.13333333,0,480)" />
      <path
         id="path8"
         d="m 1220.8,958.41 1.48,-0.051 -0.19,0.082 z"
         style="fill:#ffffff;fill-opacity:1;fill-rule:nonzero;stroke:none"
         transform="matrix(0.13333333,0,0,-0.13333333,0,480)" />
      <path
         id="path9"
         d="m 1337.55,988.43 1.47,-0.059 -0.18,0.09 z"
         style="fill:#ffffff;fill-opacity:1;fill-rule:nonzero;stroke:none"
         transform="matrix(0.13333333,0,0,-0.13333333,0,480)" />
      <path
         id="path10"
         d="m 1404.28,1018.46 1.45,-0.06 -0.18,0.09 z"
         style="fill:#ffffff;fill-opacity:1;fill-rule:nonzero;stroke:none"
         transform="matrix(0.13333333,0,0,-0.13333333,0,480)" />
      <path
         id="path11"
         d="m 2806.56,1988.16 c 12.53,-15.87 31.31,-31.32 29.46,-57.79 -5.39,-6.08 -16.15,-4.87 -22.7,-3.42 -27.85,6.16 -50.29,32.19 -65.69,51.01 14.75,-3.58 55.35,-14.32 58.93,10.2"
         style="fill:#4d4e55;fill-opacity:1;fill-rule:evenodd;stroke:none"
         transform="matrix(0.13333333,0,0,-0.13333333,0,480)" />
      <path
         id="path12"
         d="m 2375.87,1666.28 c 13.37,8.46 30.45,4.19 44.19,2.28 98.24,-13.78 188.44,-51.17 274.29,-74.82 -0.79,11.22 -16.42,16.36 -26.08,22.69 -49.71,32.67 -105.53,62.69 -166.61,86.12 -24.92,9.58 -51.17,14.04 -77.05,23.82 8.8,13.42 29.03,7.51 41.93,5.65 71.3,-10.35 132.11,-42.17 183.62,-73.67 10.66,-6.52 20.75,-13.46 30.56,-20.41 9.74,-6.85 18.47,-15.93 29.48,-19.26 1.62,12.85 -12.85,19.57 -20.39,26.08 -50.52,43.64 -101.48,90.76 -167.72,120.14 -10.03,4.43 -21.82,7.9 -28.34,16.99 0.55,4.01 6.31,4.3 15.85,3.4 28.79,-2.74 59.53,-22.52 82.75,-36.26 60.64,-35.95 111.77,-82.33 162.06,-132.6 7.93,-7.93 27.62,-23.94 28.32,-30.6 1.43,-13.12 -27.22,-34.49 -40.79,-35.15 -13.15,-0.66 -31.92,9.23 -46.48,14.74 -87.16,33.02 -173.08,69.09 -273.14,87.25 -15.22,2.76 -34.07,1.81 -46.45,13.61"
         style="fill:#4d4e55;fill-opacity:1;fill-rule:evenodd;stroke:none"
         transform="matrix(0.13333333,0,0,-0.13333333,0,480)" />
      <path
         id="path13"
         d="m 2490.34,2174.03 c -23.62,-11.35 -52.26,-19.26 -83.87,-16.99 -54.45,3.89 -85.43,42.61 -103.14,81.59 8.7,-2.62 14.46,-13.13 22.68,-18.12 15.16,-9.25 40.51,-14.75 65.73,-14.75 98.86,0 155.31,61.93 250.46,55.54 23.47,-1.56 46.52,-11.34 54.39,-31.72 7.53,-19.41 7.08,-41.93 11.36,-61.22 13.6,-61.11 40.99,-100.27 73.67,-143.92 -27.26,-9.37 -40.48,11.75 -57.78,22.65 -18.64,11.73 -38.33,16.03 -61.21,22.68 -10.31,23.33 -22.39,44.86 -40.82,60.06 -23.53,-14.77 -56.59,-34.96 -97.45,-40.81 -13,-1.86 -33.32,-2.95 -35.15,7.95 -2.97,17.33 33.5,27.23 43.07,34 49.36,-5.13 69.69,37.31 79.35,79.33 -3.47,4.5 -12.25,3.62 -17.03,6.78 -13.68,-27.84 -26.04,-57.05 -53.24,-71.38 -15.66,18.31 11.49,54.11 -5.69,74.81 -9.62,-1.34 -17.18,-4.75 -24.92,-7.96 -0.8,-19.46 -3.75,-45.37 3.36,-60.06 -7.44,3.13 -15.36,15.59 -23.77,21.54"
         style="fill:#4d4e55;fill-opacity:1;fill-rule:evenodd;stroke:none"
         transform="matrix(0.13333333,0,0,-0.13333333,0,480)" />
      <path
         id="path14"
         d="m 2796.36,1905.43 c 16.1,-4.82 52.22,-38.05 72.53,-18.14 9.34,-7 20.99,-29.08 10.2,-41.94 -43.29,4.31 -58.49,36.71 -82.73,60.08"
         style="fill:#4d4e55;fill-opacity:1;fill-rule:evenodd;stroke:none"
         transform="matrix(0.13333333,0,0,-0.13333333,0,480)" />
      <path
         id="path15"
         d="m 2843.96,1830.62 c 17.92,-6.37 36.28,-27.78 64.59,-23.79 -11.33,-36.08 -51.82,13.04 -64.59,23.79"
         style="fill:#4d4e55;fill-opacity:1;fill-rule:evenodd;stroke:none"
         transform="matrix(0.13333333,0,0,-0.13333333,0,480)" />
      <path
         id="path16"
         d="m 2507.35,2504.98 c 3.32,-10.38 7.66,-20.81 13.59,-29.48 -5.93,8.67 -9.37,19.42 -13.59,29.48"
         style="fill:#231f20;fill-opacity:1;fill-rule:nonzero;stroke:none"
         transform="matrix(0.13333333,0,0,-0.13333333,0,480)" />
      <path
         id="path17"
         d="m 2470.35,1607.16 c -1.35,0.29 -2.71,0.58 -4.08,0.88 1.37,-0.3 2.75,-0.59 4.08,-0.88"
         style="fill:#231f20;fill-opacity:1;fill-rule:nonzero;stroke:none"
         transform="matrix(0.13333333,0,0,-0.13333333,0,480)" />
      <path
         id="path18"
         d="m 2486.06,1603.25 c -1.46,0.41 -2.93,0.82 -4.47,1.22 1.54,-0.4 3.01,-0.81 4.47,-1.22"
         style="fill:#231f20;fill-opacity:1;fill-rule:nonzero;stroke:none"
         transform="matrix(0.13333333,0,0,-0.13333333,0,480)" />
      <path
         id="path19"
         d="m 2478.34,1605.28 c -1.37,0.34 -2.77,0.69 -4.2,1.02 1.43,-0.33 2.83,-0.68 4.2,-1.02"
         style="fill:#231f20;fill-opacity:1;fill-rule:nonzero;stroke:none"
         transform="matrix(0.13333333,0,0,-0.13333333,0,480)" />
      <path
         id="path20"
         d="m 2494.86,1600.56 c -1.99,0.68 -4.13,1.34 -6.33,1.99 2.2,-0.65 4.34,-1.31 6.33,-1.99"
         style="fill:#231f20;fill-opacity:1;fill-rule:nonzero;stroke:none"
         transform="matrix(0.13333333,0,0,-0.13333333,0,480)" />
      <path
         id="path21"
         d="m 2461.98,1608.91 c -1.25,0.24 -2.54,0.48 -3.81,0.72 1.27,-0.24 2.56,-0.48 3.81,-0.72"
         style="fill:#231f20;fill-opacity:1;fill-rule:nonzero;stroke:none"
         transform="matrix(0.13333333,0,0,-0.13333333,0,480)" />
      <path
         id="path22"
         d="m 2428.29,1614.31 -1.26,0.16 1.26,-0.16"
         style="fill:#231f20;fill-opacity:1;fill-rule:nonzero;stroke:none"
         transform="matrix(0.13333333,0,0,-0.13333333,0,480)" />
      <path
         id="path23"
         d="m 2409.66,1616.39 -0.84,0.08 0.84,-0.08"
         style="fill:#231f20;fill-opacity:1;fill-rule:nonzero;stroke:none"
         transform="matrix(0.13333333,0,0,-0.13333333,0,480)" />
      <path
         id="path24"
         d="m 2453.18,1610.56 -1.91,0.32 1.91,-0.32"
         style="fill:#231f20;fill-opacity:1;fill-rule:nonzero;stroke:none"
         transform="matrix(0.13333333,0,0,-0.13333333,0,480)" />
      <path
         id="path25"
         d="m 2419.26,1615.39 -1.49,0.16 1.49,-0.16"
         style="fill:#231f20;fill-opacity:1;fill-rule:nonzero;stroke:none"
         transform="matrix(0.13333333,0,0,-0.13333333,0,480)" />
      <path
         id="path26"
         d="m 2295.41,1639.09 0.43,-0.31 -0.43,0.31"
         style="fill:#231f20;fill-opacity:1;fill-rule:nonzero;stroke:none"
         transform="matrix(0.13333333,0,0,-0.13333333,0,480)" />
      <path
         id="path27"
         d="m 2295.84,1638.78 v 0 l 0.02,-0.01 z"
         style="fill:#ffffff;fill-opacity:1;fill-rule:nonzero;stroke:none"
         transform="matrix(0.13333333,0,0,-0.13333333,0,480)" />
      <path
         id="path28"
         d="m 2391.54,958.359 1.45,0.051 -1.27,0.031 z"
         style="fill:#ffffff;fill-opacity:1;fill-rule:nonzero;stroke:none"
         transform="matrix(0.13333333,0,0,-0.13333333,0,480)" />
      <path
         id="path29"
         d="m 2274.97,988.461 -0.18,-0.09 1.45,0.059 z"
         style="fill:#ffffff;fill-opacity:1;fill-rule:nonzero;stroke:none"
         transform="matrix(0.13333333,0,0,-0.13333333,0,480)" />
      <path
         id="path30"
         d="m 2208.24,1018.49 -0.17,-0.09 1.46,0.06 z"
         style="fill:#ffffff;fill-opacity:1;fill-rule:nonzero;stroke:none"
         transform="matrix(0.13333333,0,0,-0.13333333,0,480)" />
      <path
         id="path31"
         d="m 1150.68,1601.23 c 1.36,0.29 2.73,0.58 4.11,0.87 -1.38,-0.29 -2.75,-0.58 -4.11,-0.87"
         style="fill:#231f20;fill-opacity:1;fill-rule:nonzero;stroke:none"
         transform="matrix(0.13333333,0,0,-0.13333333,0,480)" />
      <path
         id="path32"
         d="m 1134.99,1597.29 c 1.45,0.42 2.93,0.83 4.48,1.23 -1.55,-0.4 -3.03,-0.81 -4.48,-1.23"
         style="fill:#231f20;fill-opacity:1;fill-rule:nonzero;stroke:none"
         transform="matrix(0.13333333,0,0,-0.13333333,0,480)" />
      <path
         id="path33"
         d="m 1142.7,1599.34 c 1.38,0.34 2.77,0.68 4.21,1.02 -1.44,-0.34 -2.83,-0.68 -4.21,-1.02"
         style="fill:#231f20;fill-opacity:1;fill-rule:nonzero;stroke:none"
         transform="matrix(0.13333333,0,0,-0.13333333,0,480)" />
      <path
         id="path34"
         d="m 1126.19,1594.6 c 2,0.67 4.13,1.34 6.34,1.99 -2.21,-0.65 -4.34,-1.32 -6.34,-1.99"
         style="fill:#231f20;fill-opacity:1;fill-rule:nonzero;stroke:none"
         transform="matrix(0.13333333,0,0,-0.13333333,0,480)" />
      <path
         id="path35"
         d="m 1159.07,1602.98 c 1.25,0.25 2.52,0.49 3.81,0.73 -1.29,-0.24 -2.56,-0.48 -3.81,-0.73"
         style="fill:#231f20;fill-opacity:1;fill-rule:nonzero;stroke:none"
         transform="matrix(0.13333333,0,0,-0.13333333,0,480)" />
      <path
         id="path36"
         d="m 1192.75,1608.41 1.27,0.15 -1.27,-0.15"
         style="fill:#231f20;fill-opacity:1;fill-rule:nonzero;stroke:none"
         transform="matrix(0.13333333,0,0,-0.13333333,0,480)" />
      <path
         id="path37"
         d="m 1211.38,1610.5 0.84,0.08 -0.84,-0.08"
         style="fill:#231f20;fill-opacity:1;fill-rule:nonzero;stroke:none"
         transform="matrix(0.13333333,0,0,-0.13333333,0,480)" />
      <path
         id="path38"
         d="m 1167.87,1604.64 1.92,0.33 -1.92,-0.33"
         style="fill:#231f20;fill-opacity:1;fill-rule:nonzero;stroke:none"
         transform="matrix(0.13333333,0,0,-0.13333333,0,480)" />
      <path
         id="path39"
         d="m 1201.78,1609.49 1.48,0.17 -1.48,-0.17"
         style="fill:#231f20;fill-opacity:1;fill-rule:nonzero;stroke:none"
         transform="matrix(0.13333333,0,0,-0.13333333,0,480)" />
      <path
         id="path40"
         d="m 1325.64,1633.3 -0.44,-0.3 0.44,0.3"
         style="fill:#231f20;fill-opacity:1;fill-rule:nonzero;stroke:none"
         transform="matrix(0.13333333,0,0,-0.13333333,0,480)" />
      <path
         id="path41"
         d="m 1325.2,1633 v 0 -0.01 z"
         style="fill:#ffffff;fill-opacity:1;fill-rule:nonzero;stroke:none"
         transform="matrix(0.13333333,0,0,-0.13333333,0,480)" />
      <path
         id="path42"
         d="m 1308.41,1613.25 0.49,0.43 -0.49,-0.43"
         style="fill:#ffffff;fill-opacity:1;fill-rule:nonzero;stroke:none"
         transform="matrix(0.13333333,0,0,-0.13333333,0,480)" />
      <path
         id="path43"
         d="m 2221.94,2171.04 c 26.66,-42.06 60.14,-77.37 112.19,-94.07 -64.07,-29.15 -123.97,14.29 -112.19,94.07 z m 760.28,-479.83 c -6.94,-0.97 -19.66,14.88 -28.32,20.4 -7.28,-2.19 -11.63,-13.28 -17.02,-13.59 -31.07,22.81 -73.58,52.63 -125.79,46.47 -11.55,-1.37 -30.31,-16.16 -41.94,-23.8 -12.16,-7.98 -23.71,-16.48 -35.13,-23.81 57.05,-5.39 93.86,-28.64 111.07,-78.2 4.51,-13 13.93,-37.94 10.19,-52.12 -1.77,-6.74 -17.45,-15.99 -24.94,-22.66 -10.21,-9.17 -17.29,-16.68 -23.78,-22.69 -18.75,-17.28 -31.06,-35.83 -46.48,-47.6 -31.12,-23.77 -74.73,1.12 -102.01,18.14 -42.94,26.78 -70.5,61.73 -124.68,74.81 -88.49,21.36 -198.95,14.82 -270.3,-23.43 -30.43,-35.48 -51.2,-87.81 -62.46,-147.12 -3.37,-17.88 -10.65,-49.96 -8.56,-68.29 0.47,-4.15 2.22,-8.45 4.56,-12.73 13.74,-23.02 43.58,-40.63 68.19,-55.6 52.89,-32.15 111.89,-59.39 176.78,-79.32 39.46,-12.12 86.1,-22.71 132.6,-15.85 4.65,-13.04 22.87,-36.13 11.32,-54.4 -4,-6.41 -30.44,-16.29 -37.36,-21.55 -21.27,-16.02 -36.7,-40.37 -52.16,-65.72 -10.7,-17.56 -28.4,-46.261 -52.13,-23.8 -6.54,6.2 -10.42,18.94 -11.34,27.19 -5.08,46.88 19.38,96.5 30.6,131.46 -15.63,-5.96 -37.58,-12.3 -61.17,-18.12 -16.27,-4.01 -55.12,-14.66 -64.62,0 -13.93,21.44 15.56,44.29 21.54,57.8 -22.83,-4.33 -57.5,-13.97 -85.02,-13.6 -7.84,0.11 -20.33,1.6 -23.79,6.77 -12,18.03 11.77,40.94 15.87,54.43 -18.2,-6.2 -41.63,-18.4 -66.85,-18.14 -45.62,0.46 -19.88,42.92 -1.31,62.39 -7.35,-1.31 -14.91,-2.33 -22.44,-3.27 -9.19,-2.77 -18.86,-4.97 -28.42,-4.71 -10.04,0.25 -19.86,4.07 -21.52,11.32 -2.4,10.59 8.86,22.12 14.72,31.74 3.39,5.53 6.78,11.37 10.14,17.32 16.07,81.69 -20.67,190.79 90.23,231.17 24.04,9.37 58.15,13.54 76.42,16.32 53.01,13.72 114.35,19.6 177.95,11.74 -1.99,0.68 -4.13,1.34 -6.33,1.99 l -2.47,0.7 c -1.46,0.41 -2.93,0.82 -4.47,1.22 -1.05,0.28 -2.15,0.55 -3.25,0.81 -1.37,0.34 -2.77,0.69 -4.2,1.02 -1.25,0.29 -2.5,0.57 -3.79,0.86 -1.33,0.29 -2.71,0.58 -4.08,0.88 -1.44,0.29 -2.84,0.58 -4.29,0.87 -1.25,0.24 -2.54,0.48 -3.81,0.72 -1.66,0.31 -3.3,0.62 -4.99,0.93 l -1.91,0.32 c -7.36,1.26 -15.07,2.42 -22.98,3.43 l -1.26,0.16 c -2.58,0.32 -5.17,0.63 -7.77,0.92 l -1.49,0.16 c -2.69,0.3 -5.4,0.58 -8.11,0.84 l -0.84,0.08 c -15.03,1.43 -30.35,2.31 -45.03,2.5 -44.45,-0.64 -91.71,-10.01 -133.94,-26.37 19.59,21.84 43.36,37.29 65.99,46.18 l -0.43,0.31 c -25.7,1.16 -62.3,-11.04 -123.9,-48.84 1.45,4.87 -2.73,26.42 66.48,55.49 17.68,10.98 58.08,16.11 80.08,21.67 l 0.02,0.08 c -48.6,8.69 -107.19,-3.09 -138.69,-22.01 13.37,33.82 46.78,56.28 84.23,67.92 -25.37,7.04 -60.1,11.32 -88.05,6.94 -2.97,1.89 4.94,6.59 8.29,8.73 24.14,15.53 62.19,30.73 101.21,31.59 -3.37,1.78 -6.73,3.56 -10.09,5.36 -34.93,20.18 -54.86,43.87 -54.94,56.04 20.85,-15.85 59.22,-45.04 158.1,-66.24 -4.38,42.93 32.72,54.15 70.23,58.93 -55.84,12.52 -115.38,21.37 -172.24,32.86 -13.44,2.9 -55.97,13.84 -55.7,21.28 109.65,-13.19 293.93,-9.91 358.29,42.21 -90.15,-21.5 -211.89,-32.33 -256.93,-15.66 60.73,18.41 187.72,29.38 246.76,92.72 -79.98,-26.83 -117.51,-25.17 -185.05,-30.17 50.03,16.68 122.5,56.05 152.16,95.9 -56.56,-20.5 -113.74,-40.4 -187,-44.21 36.54,17.53 74.88,33.19 102.01,60.09 -30.89,-3.11 -62.44,-5.56 -94.07,-7.94 7.24,13.19 16.03,24.78 23.79,37.39 -68.25,28.46 -136.79,58.08 -166.81,164.41 22.4,-23 46.62,-35.46 61.13,-28.47 l 0.27,0.08 c -13.51,63.98 -10.87,159.69 45.36,177.93 -28.57,26.84 -72.98,31.85 -106.13,31.85 33.78,21.26 113.9,2.17 145.77,-9.18 -13.99,25.28 -51.58,57.84 -79.47,69.22 45.66,2.58 106.25,-20.57 132.75,-40.89 -10.25,17.49 -21.34,38.4 -35.12,54.4 -4.17,4.83 -31.33,40.28 -47.59,57.8 33.19,-14.38 97.57,-47.54 122.37,-100.87 6.83,2.25 16.82,1.34 23.81,3.4 -28.6,109.98 -118.57,164.46 -132.42,192.54 23.26,-19.55 128.84,-60.05 163.03,-166.46 4.22,-10.06 7.66,-20.81 13.59,-29.48 11.98,-17.45 37.25,-20.91 65.75,-20.39 5.42,-12.58 11.29,-25.87 17.95,-38.85 0.74,-1.47 1.53,-2.93 2.3,-4.39 1.23,-2.31 2.48,-4.64 3.78,-6.93 l 0.87,-1.52 c 5.58,-9.71 11.72,-19.03 18.64,-27.48 l 0.04,-0.12 c 7.52,-9.19 15.9,-17.38 25.55,-23.85 15.03,-43.14 33.86,-68.21 67.41,-92.86 1.35,-45.97 4.62,-110.94 23.24,-142.88 9.88,-16.9 23.87,-32.41 35.15,-48.73 56.21,-81.33 107.77,-166.16 157.54,-256.15 19.5,-35.28 44.76,-74 43.06,-120.14 z m -375.15,-284.48 c 15.36,19.04 28.92,39.88 39.66,63.49 17.26,-10.33 33.86,-21.31 56.71,-26.06 -24.75,-19.86 -59.07,-30.09 -96.37,-37.43 z m -160.94,-175.66 c -29.2,8.03 -52.22,22.77 -72.54,43.06 -19.85,19.87 -46.61,51.67 -41.92,94.07 0.9,8.19 7.35,19.75 5.67,30.62 -2.27,14.55 -21.93,24.21 -32.88,35.14 -11.82,11.82 -31.81,37.34 -15.83,57.79 22.42,28.81 84.59,1.44 96.32,-20.41 16.61,-30.93 6.65,-88.28 12.45,-139.4 5.56,-48.76 26.58,-78.27 48.73,-100.87 z m 136,72.53 c 13.76,-27.55 15.58,-81.5 2.27,-111.06 -17.91,-4.79 -40.8,-9.11 -60.04,-3.4 26.38,31.03 45.4,69.43 57.77,114.46 z M 2391.54,958.359 c -74.65,-35.379 -163.99,-90.519 -251.25,-117.058 -5.04,-1.531 -10.99,-3.91 -16.92,-3 -6.64,22.039 5.32,62.308 19.43,73.898 70.07,3.41 135.12,17.922 194.33,32.27 15.01,3.633 42.53,13.89 54.41,13.89 l 0.18,0.082 1.27,-0.031 z M 2006.62,868.32 c -4.35,14.442 -0.7,36.66 6.3,53.551 -18.69,-7.82 -37.43,-14.851 -56.1,-20.519 -5.02,-1.532 -10.98,-3.911 -16.93,-3.012 -6.64,22.051 5.32,62.308 19.46,73.898 70.04,3.41 135.11,17.934 194.29,32.272 15.02,3.64 44.79,14.56 56.67,14.55 l -2.24,-0.66 c -43.93,-20.818 -92.97,-48.451 -143.65,-73.111 55.55,5.82 107.72,17.512 155.96,29.199 15.01,3.641 42.53,13.891 54.41,13.883 l 0.18,0.09 1.27,-0.031 -1.45,-0.059 C 2200.15,953 2110.8,897.859 2023.54,871.332 c -5.03,-1.543 -10.99,-3.91 -16.92,-3.012 z m -332.72,30.02 c -5.93,-0.899 -11.89,1.48 -16.94,3.012 -18.65,5.668 -37.4,12.699 -56.07,20.519 6.99,-16.891 10.64,-39.109 6.29,-53.551 -5.94,-0.898 -11.9,1.469 -16.93,3.012 -87.26,26.527 -176.6,81.668 -251.23,117.039 l -1.47,0.059 1.29,0.031 0.18,-0.09 c 11.89,0.008 39.39,-10.242 54.41,-13.883 48.22,-11.687 100.41,-23.386 155.95,-29.199 -50.69,24.66 -99.73,52.293 -143.65,73.111 l -1.45,0.06 1.27,0.03 0.18,-0.09 c 11.87,0.02 39.41,-10.25 54.41,-13.89 59.21,-14.338 124.25,-28.862 194.32,-32.272 14.11,-11.59 26.08,-51.847 19.44,-73.898 z m -183.47,-60.039 c -5.94,-0.91 -11.89,1.469 -16.92,3 -87.27,26.539 -176.61,81.679 -251.23,117.058 l -1.48,0.051 1.29,0.031 0.19,-0.082 c 11.88,0 39.38,-10.257 54.4,-13.89 59.19,-14.348 124.26,-28.86 194.31,-32.27 14.13,-11.59 26.09,-51.859 19.44,-73.898 z M 1103.66,2181.34 c 2.37,18.69 12.51,36.94 32.85,26.08 5.48,-37.6 4.33,-88.85 -37.39,-83.87 -36.74,4.36 -53.79,46.91 -63.47,80.46 3.63,3.93 10.35,4.77 16.98,5.66 10.85,-29.58 22.77,-58.08 47.62,-73.65 8.29,10.37 1.44,29.89 3.41,45.32 z m 84.28,-1043.2 c -2.87,-7.79 -4.02,-17.79 -2.27,-27.2 -22.38,4.09 -42.33,10.55 -55.52,23.81 0.97,-25.85 4.35,-49.28 9.06,-71.42 -3.52,-1.02 -5.7,4.34 -7.95,6.82 -19.88,21.98 -43.86,48.31 -60.09,74.79 4.11,-46.92 11.98,-90.06 28.36,-124.67 -0.7,-3.52 -3.79,2.69 -4.53,3.4 -33.46,31.9 -49.86,88.95 -48.75,155.27 18.52,-11.22 51.91,-11.38 74.8,-3.4 l 20.41,9.07 c 5.28,0.9 10,-1.16 14.74,-1.13 28.05,0.15 51.56,14.47 62.37,35.13 65.62,-10 109.75,18.79 133.7,57.81 21.6,4.27 37.86,13.52 53.28,27.18 12.1,10.71 29.61,29.69 31.74,47.62 2.21,18.56 -7.82,50.73 -9.07,69.13 -5.42,79.8 -38.07,97.25 -72.15,133.17 -175.12,45.03 -312.73,-1.68 -416.324,-66.3 -5.957,-3.72 -13.918,-9.65 -17.004,-10.21 -15.359,-2.68 -34.246,8.1 -48.726,5.67 -22.578,46.97 -53.95,85.08 -88.391,120.15 6.633,1.27 10.813,5.02 18.105,5.67 16.336,50.13 52.051,80.9 112.188,87.25 -6.094,40.79 0.937,84.18 14.734,112.21 -14.988,-8.42 -30.386,-26.27 -45.339,-38.54 -91.551,-6.28 -192.801,-35.07 -246.395,-79.34 -24.926,25.95 -18.801,85.89 6.805,106.55 60.976,137.97 184.355,258.46 275.886,371.73 5.879,7.3 16.164,19.38 16.965,23.8 1.446,7.54 -2.597,19.25 -3.359,28.36 -8.914,103.38 39.851,173.29 107.655,213.04 -1.56,24.54 -2.85,49.28 -5.66,72.54 13.12,23.6 21.71,36.17 28.85,43.65 40.97,60.85 131.89,128.65 200.36,143.79 -57.54,-42.53 -118,-99.66 -124.02,-131.65 40.87,26.98 89.58,64.39 133.62,53.25 -35.48,-13.3 -80.58,-55.63 -111.98,-102.07 3.31,-8.49 5.95,-17.64 8.03,-27.35 28.97,31.12 143.14,109.41 141.26,101.91 -26.39,-23.14 -88.27,-75.95 -99.34,-114.4 5.09,-5.86 15.01,-6.9 21.55,-11.33 27.28,18.81 80.29,45.67 112.82,50.04 -51.91,-35.02 -49.92,-46.46 -68.63,-69.3 3.87,-6.71 9.17,-12 15.89,-15.86 44.74,24.6 82.09,-2.32 82.74,-49.88 0.6,-47.14 -42.51,-71.12 -90.71,-72.53 1.81,-16.87 8.74,-28.63 16.49,-39.55 l 1.18,0.01 c 5.21,-7.61 13.64,-20.38 17.06,-25.67 -20.54,-10.54 -40.31,-20.36 -69.12,-20.41 -49.55,-0.1 -82.5,27.6 -125.81,45.33 -41.66,17.05 -91.88,18.82 -141.669,1.13 -13.347,-17.09 -21.66,-54.81 -11.34,-81.61 -5.886,-10.58 -16.394,-14.3 -23.789,-23.8 -17.293,-22.13 -19.605,-56.59 -38.543,-78.19 -6.386,-7.31 -13.41,-11.35 -20.41,-19.26 76.66,1.55 123.361,33.07 160.931,73.67 50.09,-43.77 117.37,7.7 140.57,43.06 41.89,-36.56 130.67,-25.11 169.99,6.79 -3.46,-3.66 -7.19,-7.21 -11.18,-10.62 11.9,8.21 22.51,16.81 31.05,26.81 -35.17,-60.61 -88.82,-83.95 -142.41,-106.4 7.77,-12.68 16.57,-24.33 23.79,-37.58 -31.62,2.39 -63.19,4.86 -94.07,7.98 27.13,-27.04 65.48,-42.76 102.01,-60.36 -73.28,3.81 -130.43,23.82 -187.02,44.41 29.7,-40.03 102.13,-79.6 152.17,-96.36 -67.55,5.02 -105.08,3.34 -185.04,30.31 59.04,-63.65 186.04,-74.67 246.77,-93.17 -45.04,-16.75 -166.81,-5.86 -256.96,15.75 64.37,-52.37 248.65,-55.68 358.33,-42.43 0.25,-7.47 -42.27,-18.45 -55.72,-21.37 -56.85,-11.56 -116.39,-20.44 -172.25,-33.03 37.53,-4.81 74.63,-16.06 70.24,-59.21 98.89,21.31 137.24,50.63 158.1,66.56 -0.08,-12.24 -20.02,-36.03 -54.96,-56.31 -3.33,-1.81 -6.71,-3.6 -10.07,-5.39 39.03,-0.86 77.06,-16.12 101.22,-31.74 3.35,-2.14 11.26,-6.88 8.27,-8.76 -27.93,4.39 -62.67,0.1 -88.04,-6.99 37.45,-11.69 70.86,-34.26 84.23,-68.24 -31.51,19.01 -90.11,30.85 -138.7,22.11 l 0.04,-0.08 c 21.99,-5.58 62.37,-10.74 80.06,-21.76 69.24,-29.22 65.03,-50.87 66.47,-55.77 -61.58,37.99 -98.17,50.24 -123.88,49.07 l -0.44,-0.3 c 22.65,-8.93 46.41,-24.46 65.98,-46.4 -42.2,16.43 -89.48,25.85 -133.92,26.5 -14.67,-0.2 -29.99,-1.08 -45.04,-2.52 l -0.84,-0.08 c -2.72,-0.26 -5.41,-0.54 -8.12,-0.84 l -1.48,-0.17 c -2.6,-0.28 -5.2,-0.59 -7.76,-0.93 l -1.27,-0.15 c -7.92,-1.02 -15.62,-2.18 -22.96,-3.44 l -1.92,-0.33 c -1.7,-0.3 -3.35,-0.62 -4.99,-0.93 -1.29,-0.24 -2.56,-0.48 -3.81,-0.73 -1.44,-0.29 -2.87,-0.58 -4.28,-0.88 -1.38,-0.29 -2.75,-0.58 -4.11,-0.87 -1.27,-0.29 -2.54,-0.58 -3.77,-0.87 -1.44,-0.34 -2.83,-0.68 -4.21,-1.02 -1.1,-0.26 -2.19,-0.54 -3.23,-0.82 -1.55,-0.4 -3.03,-0.81 -4.48,-1.23 l -2.46,-0.7 c -2.21,-0.65 -4.34,-1.32 -6.34,-1.99 63.6,7.89 124.92,1.98 177.93,-11.8 18.28,-2.8 52.38,-6.98 76.45,-16.4 43.48,-15.92 64.17,-42.5 74.33,-73.82 4.13,-2.76 8.16,-5.6 12.02,-8.58 6.29,-55.2 5.23,-116.54 28.15,-156.6 -13.62,-2.97 -4.44,-8.75 -19.63,-10.19 14.21,-8.86 9.42,-16.64 24.16,-24.94 -31.45,-13.09 -66.08,-23.03 -103.13,-30.59 4.27,-10.86 19.81,-20.25 30.62,-28.32 -37.63,-16.02 -73.07,-34.26 -122.42,-38.55 3.9,-8.19 16.77,-17.22 27.21,-22.68 -20.97,-5.37 -51.47,-13.15 -74.78,-5.66 -2.57,-12.95 -3.15,-27.85 -5.71,-40.79 -25.9,-0.63 -50.86,-0.27 -63.45,12.46 z m -119.01,188.15 c 14.3,-45.79 32.54,-87.6 57.8,-122.41 -14.85,-8 -40.98,-14.43 -61.2,-6.8 -16.3,35.73 -10.75,95.55 3.4,129.21 z m 157.59,6.43 c 10.62,50.34 6.11,108.37 25.55,137.6 13.76,20.64 78.24,42.01 97.85,11.21 13.98,-21.86 -8.35,-45.39 -21.23,-56.04 -11.92,-9.84 -32.42,-17.59 -36.06,-31.88 -2.7,-10.65 2.64,-22.77 2.76,-31.01 0.66,-42.66 -28.99,-71.78 -50.62,-89.68 -22.15,-18.28 -46.47,-30.78 -76.29,-36.02 24.18,20.42 47.9,47.79 58.04,95.82 z m -222.17,83.1 c -32.58,4.84 -59.389,15.44 -75.959,36.25 15.242,8.22 27.402,19.46 44.238,26.09 6.617,-23.95 22.039,-45.19 31.721,-62.34 z m 282.55,657.49 c 52.07,16.78 85.53,52.25 112.2,94.51 11.78,-80.17 -48.1,-123.81 -112.2,-94.51 z m 1722.17,-326.56 c -12.04,36.33 -25.95,70.35 -44.97,104.28 -46.99,83.79 -96.33,163.19 -148.49,239.13 -10.12,14.76 -24.91,30.89 -32.88,45.34 -7.84,14.2 -10.69,34.44 -12.47,53.26 -1.91,20.41 0.53,43.36 -3.38,63.46 -4.65,23.94 -24.51,40.43 -38.52,58.94 -24.51,32.37 -48.46,68.19 -70.81,102.59 -3.86,13.38 0.95,59.37 0.73,71.49 -0.68,38.34 -17.96,72.14 -32.86,89.34 -12.8,14.78 -71.66,86.71 -133.5,110.62 -75.91,41.43 -201.82,98.41 -421.1,126.76 -78.3,17.05 -166.79,28.12 -262.71,26.41 -60.13,0.8 -117.18,-3.49 -170.72,-11.01 -249.32,-25.7 -379.36,-89.1 -461.65,-129.96 -44.83,-20.54 -132.4,-86.43 -146.47,-110.83 -14.95,-25.94 -32.192,-50.47 -32.883,-88.41 -0.215,-12.13 4.133,-25.41 2.273,-38.52 -1.07,-7.7 -14.695,-15.22 -21.543,-21.54 -56.812,-52.44 -92.019,-130.37 -82.715,-236.87 -78.472,-101.65 -193.523,-204.67 -256.621,-324.15 -19.136,-36.24 -46.988,-87.16 -56.66,-128.05 v -26.07 c 8.012,-69.59 75.734,-92.78 123.547,-132.61 35.305,-29.43 96.199,-62.36 119.465,-103.13 6.941,-12.16 16.219,-35.8 23.789,-40.82 15.398,-10.1 45.957,-3.36 63.484,-6.79 10.379,-2.04 13.992,-11.59 26.074,-19.26 9.54,-6.1 22.422,-11.63 31.719,-14.74 8.899,-3 70.981,-20.57 74.801,-4.56 2.27,9.52 -6.3,9.33 -13.6,14.77 -22.4,16.69 -30.37,48.65 -43.037,70.26 28.967,19.04 74.477,37.33 113.287,49.86 13.82,4.47 30.9,13 41.95,12.47 15.85,-0.77 34.92,-20.57 43.07,-29.48 -18.17,-44.05 -25.02,-115.59 -13.6,-172.25 -3.07,-6.51 -10.32,-10.59 -15.87,-15.87 -5.99,-5.68 -11.71,-11.77 -16.99,-18.13 -11.08,-13.32 -16.53,-29.93 -28.32,-41.93 -8.56,12.26 -13.39,27.28 -19.29,45.32 -3.53,10.87 -7.66,46.05 -18.14,47.61 -9.38,1.39 -14.76,-13.44 -18.12,-21.54 -12.14,-29.2 -20.37,-65.06 -16.98,-102 -34.29,6.18 -39.969,-23.85 -43.087,-49.89 -7.109,-58.99 -3.945,-125.56 19.257,-162.04 15.32,-24.11 41.96,-44.878 70.19,-59.101 10.91,-5.488 81.73,-17.73 118.72,-40.89 168.55,-105.367 356.34,-152.297 534.58,-163.387 v -1.113 c 268.89,-13.469 513.81,53.929 634.68,124.941 54.29,31.899 121.93,63.512 137.17,78.738 19.39,19.383 38.39,47.422 54.24,67.552 20.35,25.81 63.41,44.66 58.82,91.86 -2.1,21.54 -14.13,40.14 -22.68,58.93 18.96,31.15 10.83,91.49 -1.11,124.67 -3.78,10.57 -8.21,31.2 -19.28,30.61 -10.87,-0.6 -17.98,-40.58 -21.53,-51.02 -7.22,-21.25 -13.08,-35.58 -21.5,-52.13 -66.81,48.55 -106.86,129.55 -102.02,245.96 24.69,11.09 61.24,18.12 99.75,18.12 36.96,0 76.9,-1.58 96.32,-21.53 -11.28,-26.72 -25.29,-50.22 -46.48,-69.14 -6.43,-5.77 -20.5,-11.69 -17.03,-20.39 4.08,-9.93 25.73,-4.12 37.45,-2.28 42.16,6.67 76.84,17.64 103.13,36.28 66.06,-13.77 89.13,32.75 120.13,61.19 28.53,26.19 58.91,50.51 83.87,71.42 28.07,23.46 59.03,47.27 82.74,72.54 28.49,30.37 29.78,70.38 14.38,116.71"
         style="fill:#4d4e55;fill-opacity:1;fill-rule:nonzero;stroke:none"
         transform="matrix(0.13333333,0,0,-0.13333333,0,480)" />
      <path
         id="path44"
         d="m 2274.72,2235.16 v 0 l 0.27,0.08 z"
         style="fill:#51ade5;fill-opacity:1;fill-rule:nonzero;stroke:none"
         transform="matrix(0.13333333,0,0,-0.13333333,0,480)" />
      <path
         id="path45"
         d="m 2158.2,707.371 c 0,-18.461 -12.08,-24.473 -33.46,-33.441 -21.38,-8.961 -136.82,-41.809 -311.66,-41.809 -174.86,0 -311.21,37.731 -326.38,41.809 -15.21,4.109 -33.46,14.98 -33.46,33.441 V 2892.62 c 0,18.47 12.45,25.33 33.46,33.45 21,8.13 158.53,41.81 319.31,41.81 160.78,0 300.92,-35.87 318.73,-41.81 17.83,-5.94 33.46,-14.98 33.46,-33.45 V 707.371"
         style="fill:#ffffff;fill-opacity:1;fill-rule:evenodd;stroke:none"
         transform="matrix(0.13333333,0,0,-0.13333333,0,480)" />
      <path
         id="path46"
         d="m 1812.31,684.539 c -142.6,0 -258.24,30.492 -290.27,39.84 -2.3,0.66 -19.96,6.16 -19.96,18.641 v 2113.96 c 0,7.6 1.75,10.98 21.17,19.11 19.17,8.01 143.43,39.38 282.74,39.38 141.1,0 265.78,-33.48 282.87,-39.64 18.02,-6.49 20.5,-12.9 20.5,-18.85 V 743.02 c 0,-7.829 -1.86,-10.348 -21.59,-19.258 -17.14,-7.793 -120.12,-39.223 -275.46,-39.223"
         style="fill:#4d4e55;fill-opacity:1;fill-rule:evenodd;stroke:none"
         transform="matrix(0.13333333,0,0,-0.13333333,0,480)" />
      <path
         id="path47"
         d="m 1650.48,2205.22 v 565.79 h 114.13 v -472.27 h 202.04 v -93.52 h -316.17"
         style="fill:#ffffff;fill-opacity:1;fill-rule:nonzero;stroke:none"
         transform="matrix(0.13333333,0,0,-0.13333333,0,480)" />
      <path
         id="path48"
         d="m 1962.71,2145.06 v -93.5 h -202.06 v -133.13 h 190.15 v -93.5 h -190.15 v -152.15 h 209.98 v -93.49 h -324.1 v 565.77 h 316.18"
         style="fill:#ffffff;fill-opacity:1;fill-rule:nonzero;stroke:none"
         transform="matrix(0.13333333,0,0,-0.13333333,0,480)" />
      <path
         id="path49"
         d="m 1808.58,1024.71 c 67.36,0 78.44,57.87 78.44,209.99 0,151.36 -11.08,210.01 -78.44,210.01 -67.35,0 -78.47,-58.65 -78.47,-210.01 0,-152.12 11.12,-209.99 78.47,-209.99 z m 0,503.98 c 171.15,0 192.55,-122.03 192.55,-293.98 0,-171.95 -21.4,-293.98 -192.55,-293.98 -171.16,0 -192.56,122.03 -192.56,293.97 0,171.96 21.4,293.99 192.56,293.99"
         style="fill:#ffffff;fill-opacity:1;fill-rule:nonzero;stroke:none"
         transform="matrix(0.13333333,0,0,-0.13333333,0,480)" />
      <path
         id="path50"
         d="m 1771,836.672 c -3.42,-33.363 31.53,-49.043 54.04,-37.91 35.11,17.328 20.96,77.238 -23.16,70.207 -17.53,-2.789 -29.17,-15.547 -30.88,-32.297 z m 35.81,42.828 c 29.2,1.25 60.66,-27.84 45.63,-65.301 -8.3,-20.711 -29.9,-31.578 -51.97,-28.789 -30.08,3.82 -49.54,40.77 -34.42,69.52 6.43,12.16 20.74,23.73 40.76,24.57"
         style="fill:#ffffff;fill-opacity:1;fill-rule:evenodd;stroke:none"
         transform="matrix(0.13333333,0,0,-0.13333333,0,480)" />
      <path
         id="path51"
         d="m 1823.65,857.031 c -7.78,7.969 -22.91,6.168 -32.3,1.41 0,-17.32 0,-34.652 0,-51.961 3.51,0 7.01,0 10.53,0 0.84,7.122 -1.72,17.641 1.41,22.461 11.23,-1.632 11.41,-14.332 16.16,-22.461 3.99,0 7.93,0 11.93,0 -3.82,8.84 -8.06,17.231 -12.65,25.282 10.34,3.578 11.49,18.558 4.92,25.269 z m -21.77,11.938 c 44.12,7.031 58.27,-52.879 23.16,-70.207 -22.51,-11.133 -57.46,4.547 -54.04,37.91 1.71,16.75 13.35,29.508 30.88,32.297"
         style="fill:#4d4e55;fill-opacity:1;fill-rule:evenodd;stroke:none"
         transform="matrix(0.13333333,0,0,-0.13333333,0,480)" />
      <path
         id="path52"
         d="m 1813.82,852.109 c -3.11,0.629 -9.01,1.493 -11.94,0 0,-4.668 0,-9.347 0,-14.027 5.51,-0.141 11.04,-0.281 14.06,2.109 2.36,4.258 1.13,9.559 -2.12,11.918 z m 4.91,-20.347 c 4.59,-8.051 8.83,-16.442 12.65,-25.282 -4,0 -7.94,0 -11.93,0 -4.75,8.129 -4.93,20.829 -16.16,22.461 -3.13,-4.82 -0.57,-15.339 -1.41,-22.461 -3.52,0 -7.02,0 -10.53,0 0,17.309 0,34.641 0,51.961 9.39,4.758 24.52,6.559 32.3,-1.41 6.57,-6.711 5.42,-21.691 -4.92,-25.269"
         style="fill:#ffffff;fill-opacity:1;fill-rule:evenodd;stroke:none"
         transform="matrix(0.13333333,0,0,-0.13333333,0,480)" />
    </g>
  </g>
</svg>
